<mxfile host="65bd71144e">
    <diagram id="VhgbLv532cPgLz9gmT-x" name="Page-1">
        <mxGraphModel dx="2367" dy="748" grid="1" gridSize="10" guides="1" tooltips="1" connect="1" arrows="1" fold="1" page="1" pageScale="1" pageWidth="827" pageHeight="1169" math="0" shadow="0">
            <root>
                <mxCell id="0"/>
                <mxCell id="1" parent="0"/>
                <mxCell id="106" value="" style="group" vertex="1" connectable="0" parent="1">
                    <mxGeometry x="280" y="350" width="650" height="377.01" as="geometry"/>
                </mxCell>
                <mxCell id="104" value="" style="sketch=0;pointerEvents=1;shadow=0;dashed=0;html=1;strokeColor=none;fillColor=#434445;aspect=fixed;labelPosition=center;verticalLabelPosition=bottom;verticalAlign=top;align=center;outlineConnect=0;shape=mxgraph.vvd.physical_network_adapter;" vertex="1" parent="106">
                    <mxGeometry width="650" height="377.01" as="geometry"/>
                </mxCell>
                <mxCell id="105" value="" style="rounded=0;whiteSpace=wrap;html=1;strokeColor=none;" vertex="1" parent="106">
                    <mxGeometry x="20" y="20" width="610" height="280" as="geometry"/>
                </mxCell>
                <mxCell id="28" value="Synchronous&lt;br&gt;parallel" style="text;html=1;align=center;verticalAlign=middle;resizable=0;points=[];autosize=1;strokeColor=none;fillColor=none;" parent="106" vertex="1">
                    <mxGeometry x="540" y="130" width="90" height="30" as="geometry"/>
                </mxCell>
                <mxCell id="103" value="" style="ellipse;whiteSpace=wrap;html=1;aspect=fixed;fontSize=10;fillColor=default;" parent="1" vertex="1">
                    <mxGeometry x="-80" y="342.5" width="305" height="305" as="geometry"/>
                </mxCell>
                <mxCell id="6" style="edgeStyle=orthogonalEdgeStyle;html=1;" parent="1" source="2" target="5" edge="1">
                    <mxGeometry relative="1" as="geometry"/>
                </mxCell>
                <mxCell id="2" value="Embedded Trace Macrocell&lt;br&gt;(ETM)" style="rounded=0;whiteSpace=wrap;html=1;" parent="1" vertex="1">
                    <mxGeometry x="316" y="440" width="180" height="60" as="geometry"/>
                </mxCell>
                <mxCell id="7" style="edgeStyle=orthogonalEdgeStyle;html=1;" parent="1" source="3" target="4" edge="1">
                    <mxGeometry relative="1" as="geometry"/>
                </mxCell>
                <mxCell id="10" style="edgeStyle=orthogonalEdgeStyle;html=1;" parent="1" source="3" target="2" edge="1">
                    <mxGeometry relative="1" as="geometry"/>
                </mxCell>
                <mxCell id="3" value="Data Watchpoint and Trace unit&lt;br&gt;(DWT)" style="rounded=0;whiteSpace=wrap;html=1;" parent="1" vertex="1">
                    <mxGeometry x="316" y="530" width="180" height="60" as="geometry"/>
                </mxCell>
                <mxCell id="8" style="edgeStyle=orthogonalEdgeStyle;html=1;entryX=0.5;entryY=1;entryDx=0;entryDy=0;rounded=0;" parent="1" source="4" target="5" edge="1">
                    <mxGeometry relative="1" as="geometry">
                        <Array as="points">
                            <mxPoint x="726" y="560"/>
                        </Array>
                    </mxGeometry>
                </mxCell>
                <mxCell id="4" value="Instrumentation Trace Macrocell&lt;br&gt;(ITM)" style="rounded=0;whiteSpace=wrap;html=1;" parent="1" vertex="1">
                    <mxGeometry x="636" y="530" width="180" height="60" as="geometry"/>
                </mxCell>
                <mxCell id="11" style="edgeStyle=orthogonalEdgeStyle;rounded=0;html=1;" parent="1" source="5" edge="1">
                    <mxGeometry relative="1" as="geometry">
                        <mxPoint x="970" y="460" as="targetPoint"/>
                        <Array as="points">
                            <mxPoint x="830" y="460"/>
                            <mxPoint x="830" y="460"/>
                        </Array>
                    </mxGeometry>
                </mxCell>
                <mxCell id="14" style="edgeStyle=orthogonalEdgeStyle;rounded=0;html=1;" parent="1" source="5" edge="1">
                    <mxGeometry relative="1" as="geometry">
                        <mxPoint x="970" y="480" as="targetPoint"/>
                        <Array as="points">
                            <mxPoint x="870" y="480"/>
                            <mxPoint x="870" y="480"/>
                        </Array>
                    </mxGeometry>
                </mxCell>
                <mxCell id="5" value="Trace Port Interface Unit&lt;br&gt;(TPIU)" style="rounded=0;whiteSpace=wrap;html=1;" parent="1" vertex="1">
                    <mxGeometry x="636" y="440" width="180" height="60" as="geometry"/>
                </mxCell>
                <mxCell id="15" value="ECP + DTAOP" style="text;html=1;align=center;verticalAlign=middle;resizable=0;points=[];autosize=1;strokeColor=none;fillColor=none;" parent="1" vertex="1">
                    <mxGeometry x="521" y="560" width="90" height="20" as="geometry"/>
                </mxCell>
                <mxCell id="17" value="Synchronization" style="text;html=1;align=center;verticalAlign=middle;resizable=0;points=[];autosize=1;fillColor=none;strokeColor=default;" parent="1" vertex="1">
                    <mxGeometry x="756" y="590" width="100" height="20" as="geometry"/>
                </mxCell>
                <mxCell id="18" value="Timestamps" style="text;html=1;align=center;verticalAlign=middle;resizable=0;points=[];autosize=1;fillColor=none;strokeColor=default;" parent="1" vertex="1">
                    <mxGeometry x="616" y="590" width="80" height="20" as="geometry"/>
                </mxCell>
                <mxCell id="19" value="CMPMATCH[N]" style="text;html=1;align=center;verticalAlign=middle;resizable=0;points=[];autosize=1;strokeColor=none;fillColor=none;" parent="1" vertex="1">
                    <mxGeometry x="300" y="505" width="100" height="20" as="geometry"/>
                </mxCell>
                <mxCell id="25" value="" style="image;html=1;image=img/lib/clip_art/computers/USB_Hub_128x128.png" parent="1" vertex="1">
                    <mxGeometry x="990" y="440" width="95" height="110" as="geometry"/>
                </mxCell>
                <mxCell id="26" value="Debug Probe" style="text;html=1;align=center;verticalAlign=middle;resizable=0;points=[];autosize=1;strokeColor=none;fillColor=none;fontSize=15;" parent="1" vertex="1">
                    <mxGeometry x="990" y="415" width="100" height="20" as="geometry"/>
                </mxCell>
                <mxCell id="27" value="Serial Wire" style="text;html=1;align=center;verticalAlign=middle;resizable=0;points=[];autosize=1;strokeColor=none;fillColor=none;" parent="1" vertex="1">
                    <mxGeometry x="827" y="435" width="70" height="20" as="geometry"/>
                </mxCell>
                <mxCell id="95" value="" style="curved=1;endArrow=classic;html=1;fillColor=#dae8fc;strokeColor=#6c8ebf;" parent="1" edge="1">
                    <mxGeometry width="50" height="50" relative="1" as="geometry">
                        <mxPoint x="80" y="450" as="sourcePoint"/>
                        <mxPoint x="140" y="480" as="targetPoint"/>
                        <Array as="points">
                            <mxPoint x="90" y="433.1"/>
                        </Array>
                    </mxGeometry>
                </mxCell>
                <mxCell id="97" value="" style="shape=cube;whiteSpace=wrap;html=1;boundedLbl=1;backgroundOutline=1;darkOpacity=0.05;darkOpacity2=0.1;fontSize=10;fillColor=none;size=10;" parent="1" vertex="1">
                    <mxGeometry x="150" y="490" width="60" height="50" as="geometry"/>
                </mxCell>
                <mxCell id="100" value="" style="endArrow=none;html=1;fontSize=10;exitX=0.87;exitY=0.152;exitDx=0;exitDy=0;exitPerimeter=0;entryX=0;entryY=0;entryDx=0;entryDy=0;" parent="1" source="103" target="3" edge="1">
                    <mxGeometry width="50" height="50" relative="1" as="geometry">
                        <mxPoint x="120" y="360" as="sourcePoint"/>
                        <mxPoint x="325" y="560" as="targetPoint"/>
                    </mxGeometry>
                </mxCell>
                <mxCell id="101" value="" style="endArrow=none;html=1;fontSize=10;entryX=0;entryY=1;entryDx=0;entryDy=0;exitX=0.693;exitY=0.961;exitDx=0;exitDy=0;exitPerimeter=0;" parent="1" source="103" target="3" edge="1">
                    <mxGeometry width="50" height="50" relative="1" as="geometry">
                        <mxPoint x="130" y="660" as="sourcePoint"/>
                        <mxPoint x="325" y="610" as="targetPoint"/>
                        <Array as="points"/>
                    </mxGeometry>
                </mxCell>
                <mxCell id="91" value="" style="pointerEvents=1;shadow=0;dashed=0;html=1;strokeColor=none;fillColor=#434445;labelPosition=center;verticalLabelPosition=bottom;verticalAlign=top;align=center;outlineConnect=0;shape=mxgraph.veeam.ram;" parent="1" vertex="1">
                    <mxGeometry x="-28.519999999999996" y="399.9963800904979" width="79.34426229508195" height="33.104656254561384" as="geometry"/>
                </mxCell>
                <mxCell id="88" style="edgeStyle=none;html=1;dashed=1;" parent="1" source="89" target="91" edge="1">
                    <mxGeometry relative="1" as="geometry"/>
                </mxCell>
                <mxCell id="93" value="" style="html=1;verticalLabelPosition=bottom;align=center;labelBackgroundColor=#ffffff;verticalAlign=top;strokeWidth=2;strokeColor=#0080F0;shadow=0;dashed=0;shape=mxgraph.ios7.icons.eye;fillColor=none;" parent="1" vertex="1">
                    <mxGeometry x="32.91737704918032" y="460.74353670996936" width="49.18032786885246" height="18.522843380528393" as="geometry"/>
                </mxCell>
                <mxCell id="89" value="" style="sketch=0;pointerEvents=1;shadow=0;dashed=0;html=1;strokeColor=none;fillColor=#434445;aspect=fixed;labelPosition=center;verticalLabelPosition=bottom;verticalAlign=top;align=center;outlineConnect=0;shape=mxgraph.vvd.cpu;" parent="1" vertex="1">
                    <mxGeometry x="-17.50180327868854" y="499.997416435557" width="57.30258356444315" height="57.30258356444315" as="geometry"/>
                </mxCell>
                <mxCell id="90" value="&lt;font style=&quot;font-size: 14px&quot;&gt;Profiling Counter&lt;/font&gt;" style="text;html=1;align=center;verticalAlign=middle;resizable=0;points=[];autosize=1;strokeColor=none;fillColor=none;" parent="1" vertex="1">
                    <mxGeometry x="-0.0006557377049176694" y="585" width="120" height="20" as="geometry"/>
                </mxCell>
                <mxCell id="92" value="&lt;font style=&quot;font-size: 14px;&quot;&gt;Comparator&lt;/font&gt;" style="text;html=1;align=center;verticalAlign=middle;resizable=0;points=[];autosize=1;strokeColor=none;fillColor=none;fontSize=14;" parent="1" vertex="1">
                    <mxGeometry x="12.503934426229506" y="480" width="90" height="20" as="geometry"/>
                </mxCell>
                <mxCell id="94" value="" style="aspect=fixed;html=1;points=[];align=center;image;fontSize=12;image=img/lib/azure2/general/Counter.svg;" parent="1" vertex="1">
                    <mxGeometry x="20.167540983606557" y="540.0035367099694" width="44.665012406947895" height="36.29689096482265" as="geometry"/>
                </mxCell>
                <mxCell id="102" value="" style="curved=1;endArrow=classic;html=1;fillColor=#dae8fc;strokeColor=#6c8ebf;" parent="1" target="97" edge="1">
                    <mxGeometry width="50" height="50" relative="1" as="geometry">
                        <mxPoint x="75" y="570" as="sourcePoint"/>
                        <mxPoint x="147.28747252747235" y="584.9" as="targetPoint"/>
                        <Array as="points">
                            <mxPoint x="120" y="560"/>
                        </Array>
                    </mxGeometry>
                </mxCell>
            </root>
        </mxGraphModel>
    </diagram>
</mxfile>